#N canvas 913 47 451 700 10;
#X floatatom 50 199 5 0 0 0 - - -, f 5;
#X floatatom 224 272 5 0 0 0 - - -, f 5;
#X obj 25 29 bng 15 250 50 0 empty empty empty 17 7 0 10 -262144 -1
-1;
#X obj 71 53 metro 50;
#X obj 38 142 sliders, f 32;
#X connect 2 0 3 0;
#X connect 3 0 4 0;
#X connect 4 0 0 0;
#X connect 4 1 1 0;
